<svg xmlns="http://www.w3.org/2000/svg" viewBox="0 0 384 384"><defs><style>.a{fill:#171717;}.b{fill:#5f90df;}.c{fill:#b4ebdc;}.d{fill:#e6ebee;}</style></defs><title>cropped-logo_circle</title><path class="a" d="M192,0C85.93,0,0,85.93,0,192s86,192,192,192,192-86,192-192S298,0,192,0Zm.06,366.8A174.54,174.54,0,0,1,84.56,54.7c.4-.32.82-.63,1.22-.94.64-.49,1.28-1,1.93-1.47A173.1,173.1,0,0,1,191.42,17.7h1.4A174.54,174.54,0,0,1,192,366.77Z" transform="translate(0.03 0.03)"/><path class="a" d="M192.11,17.69h0Z" transform="translate(0.03 0.03)"/><path class="a" d="M84.56,54.7c.4-.32.82-.63,1.22-.94C85.38,54.07,85,54.38,84.56,54.7Z" transform="translate(0.03 0.03)"/><path class="a" d="M192,17.69h0Z" transform="translate(0.03 0.03)"/><path class="a" d="M85.78,53.76c.64-.49,1.28-1,1.93-1.47C87.06,52.77,86.42,53.27,85.78,53.76Z" transform="translate(0.03 0.03)"/><path class="b" d="M139.46,93.75c-13.28,10.46-23.28,23.64-31.36,38.31A139,139,0,0,0,90.89,205.9c2.47,63.25,50.8,118.83,113.05,130.18,26.72,4.87,52.7,2.55,78-7.48.69-.27,1.39-.53,2.11-.74.2-.05.46.11.69.18-56.73,42.18-155,43.64-216.19-27.84a162.43,162.43,0,0,1,31.67-240C175.38,8.59,269.25,32.07,314.68,87.82c-5.32-3.38-9.9-6.44-14.63-9.23a54.56,54.56,0,0,0-6.78-2.93,17.66,17.66,0,0,0-2.9-2.19,133.48,133.48,0,0,0-49.2-13.32c-28.36-2-55.23,3.57-79.86,18C153.62,82.67,146.72,88.52,139.46,93.75Z" transform="translate(0.03 0.03)"/><path class="c" d="M139.46,93.75c7.26-5.23,14.16-11.08,21.85-15.59,24.63-14.44,51.5-20,79.86-18a133.48,133.48,0,0,1,49.2,13.32,17.66,17.66,0,0,1,2.9,2.19c5.43,6.8,11.14,13.39,16.24,20.44,13.42,18.55,22,39.23,26.56,61.66A169.59,169.59,0,0,1,339,196a6.83,6.83,0,0,1-.78,3.09,168.48,168.48,0,0,0-14.29-43c-8.42-15.23-18.44-29.14-31.73-40.66a142.28,142.28,0,0,0-45-26.7,146.7,146.7,0,0,0-40.75-8.35c-5.29-.34-10.64.38-16,.62-15.4.33-30,4.34-44.13,10C144.1,92,141.77,92.86,139.46,93.75Z" transform="translate(0.03 0.03)"/><path class="d" d="M190.53,81c5.32-.24,10.67-1,16-.62a146.7,146.7,0,0,1,40.75,8.35,142.28,142.28,0,0,1,45,26.7C305.52,127,315.54,140.89,324,156.12c0,3.28.12,6.56.12,9.84,0,10.94.35,21.9-.09,32.82-.51,12.4-3.58,24.4-7.68,36.05-2.64,7.51-6.18,14.7-9.34,22a2.21,2.21,0,0,1-1.49,1.22c1-4.9,2.17-9.78,3-14.71a138.63,138.63,0,0,0-30.78-113.82,139.94,139.94,0,0,0-32-28,135.34,135.34,0,0,0-53.22-19.84A11.5,11.5,0,0,1,190.53,81Z" transform="translate(0.03 0.03)"/></svg>
